<?xml version="1.0" encoding="UTF-8"?>
<svg
  xmlns="http://www.w3.org/2000/svg"
  viewBox="0 0 64 64"
  fill="currentColor"
>
<path d="M0 0 C1.0625 1.8125 1.0625 1.8125 0.875 5.1875 C0.64806148 9.03834391 0.64806148 9.03834391 3.875 11.375 C4.42027344 11.77074219 4.96554688 12.16648437 5.52734375 12.57421875 C9.04190499 15.40911929 9.95054419 18.93284723 10.5 23.25 C9.94529803 27.76685891 8.61234238 30.0627318 6.0625 33.8125 C3.34899727 35.16925137 1.06189032 34.87631682 -1.9375 34.8125 C-2.2675 34.8125 -2.5975 34.8125 -2.9375 34.8125 C-2.2775 37.1225 -1.6175 39.4325 -0.9375 41.8125 C-1.69933594 42.09222656 -2.46117187 42.37195312 -3.24609375 42.66015625 C-11.83754379 45.99591276 -18.51396328 50.20886412 -24.9375 56.8125 C-26.64590281 55.17837557 -27.87203047 53.94343906 -28.9375 51.8125 C-29.80375 51.93625 -30.67 52.06 -31.5625 52.1875 C-35.63923425 51.73452953 -36.97597873 50.69752452 -39.6796875 47.74609375 C-41.86430905 44.38774696 -42.43185783 40.73558582 -42.9375 36.8125 C-41.4525 36.3175 -41.4525 36.3175 -39.9375 35.8125 C-39.9375 34.4925 -39.9375 33.1725 -39.9375 31.8125 C-40.72125 31.68875 -41.505 31.565 -42.3125 31.4375 C-44.9375 30.8125 -44.9375 30.8125 -46.9375 28.8125 C-48.09251985 24.4703201 -48.24866167 20.78259225 -46.875 16.5 C-41.37929849 8.87693016 -31.09046673 6.26758823 -22.5625 3.25 C-18.94826914 1.81677052 -16.13646657 -0.00638643 -12.9375 -2.1875 C-8.53030348 -4.17784682 -3.95694792 -2.42522615 0 0 Z M-15.9375 2.8125 C-15.9375 3.1425 -15.9375 3.4725 -15.9375 3.8125 C-10.42477081 5.52334699 -7.40559845 6.2731443 -1.9375 3.8125 C-3.63165972 0.59450746 -3.63165972 0.59450746 -6.6875 -0.0625 C-10.59040758 -0.21261183 -12.62150526 0.8386936 -15.9375 2.8125 Z M-18.796875 12.1640625 C-20.63150136 14.81547457 -20.36925158 16.66688138 -19.9375 19.8125 C-17.74424767 24.26255397 -17.74424767 24.26255397 -13.609375 26.60546875 C-10.4148866 26.8529949 -8.75644204 26.16637694 -5.875 24.8125 C-1.49136828 22.75915017 -1.49136828 22.75915017 1.29296875 23.02734375 C3.0625 23.8125 3.0625 23.8125 4.3125 26.375 C4.56 27.179375 4.8075 27.98375 5.0625 28.8125 C7.40159307 25.3038604 7.47541057 23.94160567 7.0625 19.8125 C5.39107509 15.42500961 2.73188873 13.43653562 -1.41015625 11.5390625 C-6.52096574 10.06980351 -14.28279264 8.88281776 -18.796875 12.1640625 Z M-39.9375 22.8125 C-39.6075 24.1325 -39.2775 25.4525 -38.9375 26.8125 C-38.6075 25.8225 -38.2775 24.8325 -37.9375 23.8125 C-38.5975 23.4825 -39.2575 23.1525 -39.9375 22.8125 Z M-2.9375 25.8125 C-2.9375 27.1325 -2.9375 28.4525 -2.9375 29.8125 C-1.2875 29.4825 0.3625 29.1525 2.0625 28.8125 C1.7325 27.4925 1.4025 26.1725 1.0625 24.8125 C-1.0120356 24.6634288 -1.0120356 24.6634288 -2.9375 25.8125 Z M-32.9375 27.8125 C-32.9375 28.4725 -32.9375 29.1325 -32.9375 29.8125 C-35.9075 29.3175 -35.9075 29.3175 -38.9375 28.8125 C-38.2775 30.4625 -37.6175 32.1125 -36.9375 33.8125 C-33.4725 33.3175 -33.4725 33.3175 -29.9375 32.8125 C-30.2675 34.1325 -30.5975 35.4525 -30.9375 36.8125 C-32.05125 36.77125 -33.165 36.73 -34.3125 36.6875 C-37.98116025 36.40128141 -37.98116025 36.40128141 -39.9375 38.8125 C-39.31753922 40.10659289 -38.69133647 41.39769673 -38.0625 42.6875 C-37.71445312 43.40679687 -37.36640625 44.12609375 -37.0078125 44.8671875 C-35.97192457 46.96385019 -35.97192457 46.96385019 -33.9375 48.8125 C-31.33469432 48.49208603 -31.33469432 48.49208603 -28.9375 47.8125 C-28.5978981 45.93862523 -28.26611309 44.06333303 -27.9375 42.1875 C-27.751875 41.14335938 -27.56625 40.09921875 -27.375 39.0234375 C-26.95034203 35.90675135 -26.86204794 32.95319188 -26.9375 29.8125 C-28.9175 29.1525 -30.8975 28.4925 -32.9375 27.8125 Z " fill="currentColor" transform="translate(50.9375,5.1875)"/>
</svg>
