<svg xmlns="http://www.w3.org/2000/svg" width="100%" height="100%" viewBox="0 0 1600 800" version="1.1" xmlns:xlink="http://www.w3.org/1999/xlink" transform="matrix(-1,1.2246467991473532e-16,-1.2246467991473532e-16,-1,0,0)"><rect fill="#F8FF16" width="1600" height="800"></rect><g stroke="#FF851D" stroke-width="84.1" stroke-opacity="0.31"><circle fill="#F8FF16" cx="0" cy="0" r="1800"></circle><circle fill="#f9f200" cx="0" cy="0" r="1700"></circle><circle fill="#f9e500" cx="0" cy="0" r="1600"></circle><circle fill="#f9d800" cx="0" cy="0" r="1500"></circle><circle fill="#f8cb00" cx="0" cy="0" r="1400"></circle><circle fill="#f7be00" cx="0" cy="0" r="1300"></circle><circle fill="#f5b100" cx="0" cy="0" r="1200"></circle><circle fill="#f3a400" cx="0" cy="0" r="1100"></circle><circle fill="#f09700" cx="0" cy="0" r="1000"></circle><circle fill="#ec8900" cx="0" cy="0" r="900"></circle><circle fill="#e87c00" cx="0" cy="0" r="800"></circle><circle fill="#e36f00" cx="0" cy="0" r="700"></circle><circle fill="#de6100" cx="0" cy="0" r="600"></circle><circle fill="#d95400" cx="0" cy="0" r="500"></circle><circle fill="#d24500" cx="0" cy="0" r="400"></circle><circle fill="#cc3500" cx="0" cy="0" r="300"></circle><circle fill="#c52200" cx="0" cy="0" r="200"></circle><circle fill="#BD0202" cx="0" cy="0" r="100"></circle></g></svg>